STARTFONT 2.1
FONT -ibm-courier-bold-r-normal--24-240-100-100-m-154-iso8859-2
SIZE 24 100 100
FONTBOUNDINGBOX 25 34 -2 -5
COMMENT $Header: courB24.bdf,v 1.1 96/01/22 23:46:52 peterlin Exp $
COMMENT 
COMMENT Copyright International Business Machines,Corp. 1991
COMMENT IBM Courier is a Trademark of the IBM Corporation.
COMMENT 
COMMENT Automatic rendering from Adobe Type 1 outline:
COMMENT Primoz Peterlin <primoz.peterlin@biofiz.mf.uni-lj.si>
COMMENT courb.pfa rendered at 24.000000 points
COMMENT Checksum eb69a063
STARTPROPERTIES 3
FONT_ASCENT 28
FONT_DESCENT 5
DEFAULT_CHAR 32
ENDPROPERTIES
CHARS 191
STARTCHAR space
ENCODING 32
SWIDTH 597 0
DWIDTH 20 0
BBX 0 0 0 1
BITMAP
ENDCHAR
STARTCHAR exclam
ENCODING 33
SWIDTH 597 0
DWIDTH 20 0
BBX 6 19 7 1
BITMAP
78
78
78
78
78
78
78
78
78
78
30
30
30
00
38
7c
fc
fc
78
ENDCHAR
STARTCHAR quotedbl
ENCODING 34
SWIDTH 597 0
DWIDTH 20 0
BBX 10 10 5 10
BITMAP
f3c0
f3c0
f3c0
f3c0
f3c0
f3c0
f3c0
f3c0
f3c0
f3c0
ENDCHAR
STARTCHAR numbersign
ENCODING 35
SWIDTH 597 0
DWIDTH 20 0
BBX 17 24 2 -1
BITMAP
1c1c00
1c1c00
1c1c00
1c1c00
1c1c00
1c1c00
1c1c00
ffff80
ffff80
ffff80
1c1c00
1c1c00
1c1c00
1c1c00
1c1c00
ffff80
ffff80
ffff80
383800
383800
383800
383800
383800
383800
ENDCHAR
STARTCHAR dollar
ENCODING 36
SWIDTH 597 0
DWIDTH 20 0
BBX 14 26 3 -3
BITMAP
0700
0700
0700
0fb8
3ff8
7bf8
e3f8
e778
e738
f738
ff20
7f80
1ff0
07f8
e77c
e71c
e71c
f71c
fef8
fff0
ef80
0700
0700
0700
0700
0700
ENDCHAR
STARTCHAR percent
ENCODING 37
SWIDTH 597 0
DWIDTH 20 0
BBX 19 21 0 1
BITMAP
1f0000
3f8000
7fc000
f1e000
e0e000
e0e000
f1e000
7fc380
3f8f80
1f7f00
01f800
07e000
1f8f00
1c3fc0
083fc0
0070e0
0070e0
0070e0
007fe0
003fc0
000f80
ENDCHAR
STARTCHAR ampersand
ENCODING 38
SWIDTH 597 0
DWIDTH 20 0
BBX 15 19 3 1
BITMAP
0f80
1ff0
1ff0
38e0
3840
3800
3c00
1e00
0e00
3f1e
7fbe
f7be
e3f8
e1f0
e1f0
f1f8
7ffe
3fbe
1f3e
ENDCHAR
STARTCHAR quoteright
ENCODING 39
SWIDTH 597 0
DWIDTH 20 0
BBX 8 9 5 11
BITMAP
1e
3e
3c
3c
7c
78
78
f0
f0
ENDCHAR
STARTCHAR parenleft
ENCODING 40
SWIDTH 597 0
DWIDTH 20 0
BBX 7 25 9 -2
BITMAP
0e
1c
1c
38
38
70
70
70
f0
e0
e0
e0
e0
e0
e0
e0
f0
70
70
70
38
38
1c
1c
0e
ENDCHAR
STARTCHAR parenright
ENCODING 41
SWIDTH 597 0
DWIDTH 20 0
BBX 7 25 4 -2
BITMAP
e0
f0
70
78
38
3c
1c
1c
1c
0e
0e
0e
0e
0e
0e
0e
1c
1c
1c
3c
38
78
70
f0
e0
ENDCHAR
STARTCHAR asterisk
ENCODING 42
SWIDTH 597 0
DWIDTH 20 0
BBX 14 13 3 7
BITMAP
0780
0780
0780
6718
7ff8
fff8
7ff8
0f80
1fc0
1fe0
3cf0
38e0
0840
ENDCHAR
STARTCHAR plus
ENCODING 43
SWIDTH 597 0
DWIDTH 20 0
BBX 16 16 2 3
BITMAP
0380
0380
0380
0380
0380
0380
ffff
ffff
ffff
0380
0380
0380
0380
0380
0380
0380
ENDCHAR
STARTCHAR comma
ENCODING 44
SWIDTH 597 0
DWIDTH 20 0
BBX 8 9 5 -2
BITMAP
1f
3e
3e
3c
7c
78
78
f0
f0
ENDCHAR
STARTCHAR minus
ENCODING 45
SWIDTH 597 0
DWIDTH 20 0
BBX 16 3 2 10
BITMAP
ffff
ffff
ffff
ENDCHAR
STARTCHAR period
ENCODING 46
SWIDTH 597 0
DWIDTH 20 0
BBX 6 6 7 1
BITMAP
78
fc
fc
fc
f8
30
ENDCHAR
STARTCHAR slash
ENCODING 47
SWIDTH 597 0
DWIDTH 20 0
BBX 15 28 2 -3
BITMAP
000c
000e
001c
001c
0038
0038
0070
0070
0060
00e0
00e0
01c0
01c0
0380
0380
0700
0700
0e00
0e00
1c00
1c00
1c00
3800
3800
7000
7000
e000
6000
ENDCHAR
STARTCHAR zero
ENCODING 48
SWIDTH 597 0
DWIDTH 20 0
BBX 14 21 3 1
BITMAP
0f80
1fe0
3ff0
78f0
7038
7038
f03c
e01c
e01c
e01c
e01c
e01c
e01c
e01c
e03c
7038
7038
7878
3ff0
1fe0
0f80
ENDCHAR
STARTCHAR one
ENCODING 49
SWIDTH 597 0
DWIDTH 20 0
BBX 14 21 3 1
BITMAP
0380
1f80
7f80
ff80
f380
4380
0380
0380
0380
0380
0380
0380
0380
0380
0380
0380
0380
0380
fffc
fffc
fffc
ENDCHAR
STARTCHAR two
ENCODING 50
SWIDTH 597 0
DWIDTH 20 0
BBX 14 21 2 1
BITMAP
07c0
1ff0
3ff8
7878
703c
701c
001c
001c
001c
0038
0078
00f0
01e0
03c0
0f80
1f1c
3e1c
781c
fffc
fffc
fffc
ENDCHAR
STARTCHAR three
ENCODING 51
SWIDTH 597 0
DWIDTH 20 0
BBX 14 21 2 1
BITMAP
0f80
3fe0
7ff0
7078
2038
0038
0038
0078
00f0
07f0
07f0
07f8
0038
001c
001c
001c
001c
6078
fff8
7ff0
0fc0
ENDCHAR
STARTCHAR four
ENCODING 52
SWIDTH 597 0
DWIDTH 20 0
BBX 16 21 1 1
BITMAP
00f0
00f0
01f0
03f0
03f0
0770
0e70
0e70
1c70
1c70
3870
7070
7070
ffff
ffff
ffff
0070
0070
07ff
07ff
07ff
ENDCHAR
STARTCHAR five
ENCODING 53
SWIDTH 597 0
DWIDTH 20 0
BBX 15 21 2 1
BITMAP
3ffc
3ffc
3ffc
3800
3800
3800
3800
3fc0
3ff0
3ff8
387c
101c
000e
000e
000e
000e
001e
603c
7ff8
7ff0
0fc0
ENDCHAR
STARTCHAR six
ENCODING 54
SWIDTH 597 0
DWIDTH 20 0
BBX 14 21 3 1
BITMAP
01fc
07fc
1ffc
1e00
3800
7800
7000
7000
e780
ffe0
fff0
f870
f078
e038
e038
e038
7038
7870
3ff0
1fe0
0fc0
ENDCHAR
STARTCHAR seven
ENCODING 55
SWIDTH 597 0
DWIDTH 20 0
BBX 14 21 3 1
BITMAP
fffc
fffc
fffc
e038
e038
e038
0070
0070
0070
00e0
00e0
00e0
01c0
01c0
03c0
0380
0380
0780
0700
0700
0f00
ENDCHAR
STARTCHAR eight
ENCODING 56
SWIDTH 597 0
DWIDTH 20 0
BBX 14 21 3 1
BITMAP
0f80
3fe0
7ff0
7878
e038
e038
e038
f038
7878
7ff0
3ff0
7ff8
7878
f03c
e01c
e01c
e01c
7878
7ff8
3ff0
0fc0
ENDCHAR
STARTCHAR nine
ENCODING 57
SWIDTH 597 0
DWIDTH 20 0
BBX 14 21 2 1
BITMAP
0f80
1fe0
3ff0
7878
f038
e038
e01c
e01c
e01c
703c
78fc
3ffc
1ffc
07b8
0038
0030
0070
01e0
7fc0
ff80
fe00
ENDCHAR
STARTCHAR colon
ENCODING 58
SWIDTH 597 0
DWIDTH 20 0
BBX 6 14 7 1
BITMAP
78
fc
fc
fc
78
20
00
00
78
fc
fc
fc
f8
30
ENDCHAR
STARTCHAR semicolon
ENCODING 59
SWIDTH 597 0
DWIDTH 20 0
BBX 8 17 5 -2
BITMAP
1e
3f
3f
3f
1e
0c
00
00
1f
1e
3e
3c
3c
78
78
78
f0
ENDCHAR
STARTCHAR less
ENCODING 60
SWIDTH 597 0
DWIDTH 20 0
BBX 18 16 0 3
BITMAP
000080
000380
001fc0
007f00
01fc00
07f000
1fc000
7e0000
7f0000
1fc000
03f000
00fc00
003f00
000fc0
000380
000080
ENDCHAR
STARTCHAR equal
ENCODING 61
SWIDTH 597 0
DWIDTH 20 0
BBX 16 9 2 7
BITMAP
ffff
ffff
ffff
0000
0000
0000
ffff
ffff
ffff
ENDCHAR
STARTCHAR greater
ENCODING 62
SWIDTH 597 0
DWIDTH 20 0
BBX 18 16 1 3
BITMAP
600000
780000
fe0000
7f8000
0ff000
03fc00
007f00
001fc0
007f00
01fc00
07f000
1fc000
7f0000
f80000
600000
400000
ENDCHAR
STARTCHAR question
ENCODING 63
SWIDTH 597 0
DWIDTH 20 0
BBX 13 19 3 1
BITMAP
3f80
ffe0
fff0
e078
e038
0038
0038
0078
03f0
0fe0
0f80
0e00
0e00
0000
0e00
1f00
1f80
1f80
0f00
ENDCHAR
STARTCHAR at
ENCODING 64
SWIDTH 597 0
DWIDTH 20 0
BBX 19 19 0 1
BITMAP
03fc00
0fff00
1fff80
3e03c0
787dc0
71fee0
f1fce0
e39ce0
e79ce0
e718e0
e739e0
e7ffc0
f7ffc0
73cf00
798000
3e0180
1fffc0
0fff80
03fc00
ENDCHAR
STARTCHAR A
ENCODING 65
SWIDTH 597 0
DWIDTH 20 0
BBX 20 19 0 1
BITMAP
1fe000
1ff000
1ff000
00f800
01f800
019c00
039c00
031c00
070e00
070e00
0fff00
0fff00
1fff80
1c0380
1c03c0
3801c0
ff0ff0
ff0ff0
ff0ff0
ENDCHAR
STARTCHAR B
ENCODING 66
SWIDTH 597 0
DWIDTH 20 0
BBX 17 19 1 1
BITMAP
fff800
fffc00
fffe00
1c0f00
1c0700
1c0700
1c0700
1c0e00
1ffe00
1ffe00
1fff00
1c0780
1c0380
1c0380
1c0380
1c0780
ffff00
fffe00
fff800
ENDCHAR
STARTCHAR C
ENCODING 67
SWIDTH 597 0
DWIDTH 20 0
BBX 18 19 2 1
BITMAP
07e700
0ff700
3fff00
3c1f00
780700
700700
e00700
e00000
e00000
e00000
e00000
e00000
f00000
700080
780380
3c0fc0
1fff80
0ffe00
03f000
ENDCHAR
STARTCHAR D
ENCODING 68
SWIDTH 597 0
DWIDTH 20 0
BBX 17 19 1 1
BITMAP
fff000
fffc00
fffe00
380f00
380700
380300
380380
380380
380380
380380
380380
380380
380380
380700
380700
380e00
fffe00
fffc00
fff000
ENDCHAR
STARTCHAR E
ENCODING 69
SWIDTH 597 0
DWIDTH 20 0
BBX 17 19 1 1
BITMAP
ffff80
ffff80
ffff80
1c0380
1c0380
1c3b80
1c3b80
1ff800
1ff800
1ff800
1c3800
1c3800
1c3b80
1c0380
1c0380
1c0380
ffff80
ffff80
ffff80
ENDCHAR
STARTCHAR F
ENCODING 70
SWIDTH 597 0
DWIDTH 20 0
BBX 16 19 2 1
BITMAP
ffff
ffff
ffff
3807
3807
3877
3877
3ff0
3ff0
3ff0
3870
3870
3870
3800
3800
3800
ffc0
ff80
ff80
ENDCHAR
STARTCHAR G
ENCODING 71
SWIDTH 597 0
DWIDTH 20 0
BBX 18 19 1 1
BITMAP
03e380
0ffb80
1fff80
3e0f80
780780
700380
f00380
e00000
e00000
e00000
e07fc0
e07fc0
f07fc0
700380
780380
3e0380
1fff80
0fff00
03f800
ENDCHAR
STARTCHAR H
ENCODING 72
SWIDTH 597 0
DWIDTH 20 0
BBX 18 19 1 1
BITMAP
ff3fc0
ff3fc0
ff3fc0
380700
380700
380700
380700
380700
3fff00
3fff00
3fff00
380700
380700
380700
380700
380700
ff3fc0
ff3fc0
ff3fc0
ENDCHAR
STARTCHAR I
ENCODING 73
SWIDTH 597 0
DWIDTH 20 0
BBX 14 19 3 1
BITMAP
fffc
fffc
fffc
0700
0700
0700
0700
0700
0700
0700
0700
0700
0700
0700
0700
0700
fffc
fffc
fffc
ENDCHAR
STARTCHAR J
ENCODING 74
SWIDTH 597 0
DWIDTH 20 0
BBX 17 19 2 1
BITMAP
0fff80
0fff80
0fff80
003800
003800
003800
003800
003800
003800
e03800
e03800
e03800
e03800
e03800
e03800
e07800
fff000
7fe000
0fc000
ENDCHAR
STARTCHAR K
ENCODING 75
SWIDTH 597 0
DWIDTH 20 0
BBX 18 19 2 1
BITMAP
ff7f80
ff7f80
ff7f80
383e00
387800
38f000
39e000
3bc000
3f8000
3fc000
3fe000
3cf000
387800
383800
383c00
381e00
ff1fc0
ff0fc0
ff0fc0
ENDCHAR
STARTCHAR L
ENCODING 76
SWIDTH 597 0
DWIDTH 20 0
BBX 17 19 2 1
BITMAP
ffc000
ffc000
ffc000
1c0000
1c0000
1c0000
1c0000
1c0000
1c0000
1c0000
1c0380
1c0380
1c0380
1c0380
1c0380
1c0780
ffff80
ffff80
ffff80
ENDCHAR
STARTCHAR M
ENCODING 77
SWIDTH 597 0
DWIDTH 20 0
BBX 20 19 0 1
BITMAP
fe07f0
fe07f0
fe07f0
3f0fc0
3f0fc0
3b0dc0
3b9dc0
3b9dc0
3999c0
39f9c0
39f9c0
38f1c0
38f1c0
38f1c0
3801c0
3801c0
ff0ff0
ff0ff0
ff0ff0
ENDCHAR
STARTCHAR N
ENCODING 78
SWIDTH 597 0
DWIDTH 20 0
BBX 20 19 0 1
BITMAP
fe1ff0
fe1ff0
ff1ff0
1f01c0
1f81c0
1fc1c0
1dc1c0
1de1c0
1ce1c0
1c71c0
1c71c0
1c39c0
1c39c0
1c1dc0
1c1fc0
1c0fc0
ff8fc0
ff87c0
ff83c0
ENDCHAR
STARTCHAR O
ENCODING 79
SWIDTH 597 0
DWIDTH 20 0
BBX 18 19 1 1
BITMAP
03f000
0ffc00
1ffe00
3c1f00
780780
700380
f003c0
e001c0
e001c0
e001c0
e001c0
e001c0
f003c0
700380
780780
3c1f00
1ffe00
0ffc00
03f000
ENDCHAR
STARTCHAR P
ENCODING 80
SWIDTH 597 0
DWIDTH 20 0
BBX 16 19 3 1
BITMAP
fff0
fff8
fffc
380e
3807
3807
3807
380f
381e
3ffe
3ffc
3ff0
3800
3800
3800
3800
ffc0
ffc0
ffc0
ENDCHAR
STARTCHAR Q
ENCODING 81
SWIDTH 597 0
DWIDTH 20 0
BBX 18 23 1 -3
BITMAP
03f000
0ffc00
3ffe00
3c0f00
780780
700380
e001c0
e001c0
e001c0
e001c0
e001c0
e001c0
f001c0
700380
780780
3c0f00
3ffe00
1ffc00
0ff000
07e180
0fff80
1fffc0
0c1f00
ENDCHAR
STARTCHAR R
ENCODING 82
SWIDTH 597 0
DWIDTH 20 0
BBX 18 19 1 1
BITMAP
fff800
fffc00
fffe00
1c0f00
1c0700
1c0700
1c0700
1c1e00
1ffe00
1ff800
1ff000
1c7000
1c3800
1c3c00
1c1e00
1c0e00
ff0fc0
ff07c0
ff07c0
ENDCHAR
STARTCHAR S
ENCODING 83
SWIDTH 597 0
DWIDTH 20 0
BBX 14 20 3 0
BITMAP
0f9c
3ffc
7ffc
f07c
e01c
e01c
e01c
f800
7fc0
3ff0
07f8
003c
e01c
e01c
e01c
f03c
fff8
fff0
e7c0
e000
ENDCHAR
STARTCHAR T
ENCODING 84
SWIDTH 597 0
DWIDTH 20 0
BBX 17 19 1 1
BITMAP
ffff80
ffff80
ffff80
e1c380
e1c380
e1c380
e1c380
e1c380
e1c380
01c000
01c000
01c000
01c000
01c000
01c000
01c000
1ffc00
1ffc00
1ffc00
ENDCHAR
STARTCHAR U
ENCODING 85
SWIDTH 597 0
DWIDTH 20 0
BBX 19 19 0 1
BITMAP
ff9fe0
ff9fe0
ff9fe0
1c0380
1c0380
1c0380
1c0380
1c0380
1c0380
1c0380
1c0380
1c0380
1c0380
1c0380
1c0380
0e0f00
0fff00
07fe00
01f800
ENDCHAR
STARTCHAR V
ENCODING 86
SWIDTH 597 0
DWIDTH 20 0
BBX 20 19 0 1
BITMAP
ff0ff0
ff0ff0
ff0ff0
1c01c0
1c0380
1c0380
0e0300
0e0700
0f0700
070e00
070e00
039c00
039c00
039c00
01f800
01f800
00f000
00f000
00f000
ENDCHAR
STARTCHAR W
ENCODING 87
SWIDTH 597 0
DWIDTH 20 0
BBX 20 19 0 1
BITMAP
ff0ff0
ff0ff0
ff0ff0
3801c0
3861c0
38e1c0
38f1c0
38f1c0
39f9c0
3dfbc0
1fbb80
1f9f80
1f9f80
1f1f80
1f0f80
1f0f80
1e0f80
1e0780
0e0700
ENDCHAR
STARTCHAR X
ENCODING 88
SWIDTH 597 0
DWIDTH 20 0
BBX 18 19 1 1
BITMAP
7f3f80
7f3f80
7f3f80
1e1e00
0e1c00
073800
03f000
01f000
00e000
01e000
01f000
03f800
073800
0e3c00
1c1e00
3c0f00
ff3fc0
ff3fc0
ff3fc0
ENDCHAR
STARTCHAR Y
ENCODING 89
SWIDTH 597 0
DWIDTH 20 0
BBX 19 19 0 1
BITMAP
ff0fe0
ff0fe0
ff0fe0
1e0300
1e0700
0f0e00
071c00
07bc00
03b800
01f000
01f000
00e000
00e000
00e000
00e000
00e000
07fe00
07fe00
07fe00
ENDCHAR
STARTCHAR Z
ENCODING 90
SWIDTH 597 0
DWIDTH 20 0
BBX 15 19 2 1
BITMAP
7ffc
7ffc
7ffc
703c
7038
7070
70e0
01e0
03c0
0380
0700
0f0e
1e0e
1c0e
380e
780e
fffe
fffe
fffe
ENDCHAR
STARTCHAR bracketleft
ENCODING 91
SWIDTH 597 0
DWIDTH 20 0
BBX 6 25 10 -2
BITMAP
fc
fc
fc
e0
e0
e0
e0
e0
e0
e0
e0
e0
e0
e0
e0
e0
e0
e0
e0
e0
e0
e0
fc
fc
fc
ENDCHAR
STARTCHAR backslash
ENCODING 92
SWIDTH 597 0
DWIDTH 20 0
BBX 15 29 2 -4
BITMAP
6000
e000
7000
7000
3800
3800
3800
1c00
1c00
0e00
0e00
0700
0700
0380
0380
0380
01c0
01c0
00e0
00e0
0070
0070
0038
0038
003c
001c
001c
000e
000c
ENDCHAR
STARTCHAR bracketright
ENCODING 93
SWIDTH 597 0
DWIDTH 20 0
BBX 7 25 3 -2
BITMAP
fe
fe
fe
0e
0e
0e
0e
0e
0e
0e
0e
0e
0e
0e
0e
0e
0e
0e
0e
0e
0e
0e
fe
fe
fe
ENDCHAR
STARTCHAR asciicircum
ENCODING 94
SWIDTH 597 0
DWIDTH 20 0
BBX 16 14 2 6
BITMAP
07e0
07e0
07e0
0ff0
0e70
1e78
1e78
1c38
3c3c
383c
781e
781e
700e
f00f
ENDCHAR
STARTCHAR underscore
ENCODING 95
SWIDTH 597 0
DWIDTH 20 0
BBX 23 2 -2 -3
BITMAP
fffffe
fffffe
ENDCHAR
STARTCHAR quoteleft
ENCODING 96
SWIDTH 597 0
DWIDTH 20 0
BBX 8 9 5 11
BITMAP
0f
0f
1e
1e
3e
3c
3c
7c
78
ENDCHAR
STARTCHAR a
ENCODING 97
SWIDTH 597 0
DWIDTH 20 0
BBX 17 15 2 1
BITMAP
0fe000
3ff800
3ff800
203c00
001c00
0ffc00
3ffc00
7ffc00
f01c00
e01c00
e03c00
f07c00
7fff80
7fdf80
1f1f80
ENDCHAR
STARTCHAR b
ENCODING 98
SWIDTH 597 0
DWIDTH 20 0
BBX 18 21 0 1
BITMAP
fc0000
fc0000
fc0000
1c0000
1c0000
1c0000
1cf800
1ffe00
1fff00
1f0780
1e0380
1c01c0
1c01c0
1c01c0
1c01c0
1c01c0
1e0380
1f0780
ffff00
fdfe00
fcf800
ENDCHAR
STARTCHAR c
ENCODING 99
SWIDTH 597 0
DWIDTH 20 0
BBX 17 15 2 1
BITMAP
07e700
1ff700
3fff00
7c1f00
700f00
f00700
e00000
e00000
e00000
e00000
700300
7c0f80
3fff00
1ffc00
07e000
ENDCHAR
STARTCHAR d
ENCODING 100
SWIDTH 597 0
DWIDTH 20 0
BBX 19 21 1 1
BITMAP
00ff00
00ff00
00ff00
000700
000700
000700
07e700
1ff700
3fff00
7c3f00
700f00
f00f00
e00700
e00700
e00700
e00700
700f00
7c3f00
3fffe0
1fffe0
07e7e0
ENDCHAR
STARTCHAR e
ENCODING 101
SWIDTH 597 0
DWIDTH 20 0
BBX 17 15 2 1
BITMAP
07e000
1ff800
3ffc00
7c1e00
700f00
e00700
ffff00
ffff00
ffff00
e00000
f00100
780f00
3fff80
1ffe00
07f000
ENDCHAR
STARTCHAR f
ENCODING 102
SWIDTH 597 0
DWIDTH 20 0
BBX 14 21 3 1
BITMAP
03f0
0ffc
1ff8
1c00
1c00
1c00
fff8
fff8
fff8
1c00
1c00
1c00
1c00
1c00
1c00
1c00
1c00
1c00
fff8
fff8
fff8
ENDCHAR
STARTCHAR g
ENCODING 103
SWIDTH 597 0
DWIDTH 20 0
BBX 18 20 1 -4
BITMAP
07cfc0
1fffc0
3fffc0
7c3e00
701e00
e00e00
e00e00
e00e00
e00e00
f00e00
701e00
7c3e00
3ffe00
1ffe00
07ce00
000e00
001e00
0ffc00
0ff800
0ff000
ENDCHAR
STARTCHAR h
ENCODING 104
SWIDTH 597 0
DWIDTH 20 0
BBX 19 21 0 1
BITMAP
fe0000
fe0000
7e0000
0e0000
0e0000
0e0000
0e7c00
0ffe00
0fff00
0f8780
0e0380
0e0380
0e0380
0e0380
0e0380
0e0380
0e0380
0e0380
7f9fe0
7f9fe0
7f9fe0
ENDCHAR
STARTCHAR i
ENCODING 105
SWIDTH 597 0
DWIDTH 20 0
BBX 14 22 3 1
BITMAP
0780
0780
0780
0780
0000
0000
0000
7f00
7f00
7f00
0700
0700
0700
0700
0700
0700
0700
0700
0700
fffc
fffc
fffc
ENDCHAR
STARTCHAR j
ENCODING 106
SWIDTH 597 0
DWIDTH 20 0
BBX 12 27 2 -4
BITMAP
00f0
00f0
00f0
00f0
0000
0000
0000
ffe0
ffe0
ffe0
00e0
00e0
00e0
00e0
00e0
00e0
00e0
00e0
00e0
00e0
00e0
00e0
00e0
81e0
ffc0
ff80
7f00
ENDCHAR
STARTCHAR k
ENCODING 107
SWIDTH 597 0
DWIDTH 20 0
BBX 18 21 1 1
BITMAP
fc0000
fc0000
fc0000
1c0000
1c0000
1c0000
1c7f80
1c7f80
1c7f80
1c7c00
1df000
1fe000
1f8000
1fe000
1cf000
1c7800
1c3c00
1c3e00
fc3fc0
fc3fc0
fc3fc0
ENDCHAR
STARTCHAR l
ENCODING 108
SWIDTH 597 0
DWIDTH 20 0
BBX 14 21 3 1
BITMAP
0f00
ff00
ff00
0700
0700
0700
0700
0700
0700
0700
0700
0700
0700
0700
0700
0700
0700
0700
fffc
fffc
fffc
ENDCHAR
STARTCHAR m
ENCODING 109
SWIDTH 597 0
DWIDTH 20 0
BBX 20 15 0 1
BITMAP
fbcf80
ffffc0
ffffc0
3c78e0
3870e0
3870e0
3870e0
3870e0
3870e0
3870e0
3870e0
3870e0
fe7cf0
fe7cf0
fe7cf0
ENDCHAR
STARTCHAR n
ENCODING 110
SWIDTH 597 0
DWIDTH 20 0
BBX 18 15 1 1
BITMAP
f9f800
fffc00
fffe00
3e0f00
380700
380700
380700
380700
380700
380700
380700
380700
ff3fc0
ff3fc0
ff3fc0
ENDCHAR
STARTCHAR o
ENCODING 111
SWIDTH 597 0
DWIDTH 20 0
BBX 17 15 1 1
BITMAP
07f000
1ffc00
3ffe00
7c0f00
700780
e00380
e00380
e00380
e00380
f00380
700700
7c0f00
3ffe00
1ffc00
03f000
ENDCHAR
STARTCHAR p
ENCODING 112
SWIDTH 597 0
DWIDTH 20 0
BBX 18 20 0 -4
BITMAP
fcfc00
fffe00
ffff00
1f0780
1e03c0
1c01c0
1c01c0
1c01c0
1c01c0
1c01c0
1e0380
1f0780
1fff00
1dfe00
1cf800
1c0000
1c0000
ffe000
ffe000
ffe000
ENDCHAR
STARTCHAR q
ENCODING 113
SWIDTH 597 0
DWIDTH 20 0
BBX 19 20 1 -4
BITMAP
07e7e0
1fffe0
3fffe0
7c1f00
700f00
e00700
e00700
e00700
e00700
f00700
700f00
7c3f00
3fff00
1fff00
07e700
000700
000700
00ffe0
00ffe0
00ffe0
ENDCHAR
STARTCHAR r
ENCODING 114
SWIDTH 597 0
DWIDTH 20 0
BBX 17 15 2 1
BITMAP
fe3e00
feff80
ffff80
0fc200
0f8000
0f0000
0e0000
0e0000
0e0000
0e0000
0e0000
0e0000
fff800
fff800
fff800
ENDCHAR
STARTCHAR s
ENCODING 115
SWIDTH 597 0
DWIDTH 20 0
BBX 14 15 3 1
BITMAP
1f18
7ff8
fff8
e038
e038
f000
7fc0
3ff8
0ff8
603c
e01c
f03c
fff8
fff8
e7e0
ENDCHAR
STARTCHAR t
ENCODING 116
SWIDTH 597 0
DWIDTH 20 0
BBX 15 19 3 1
BITMAP
3800
3800
3800
3800
fff8
fff8
fff8
3800
3800
3800
3800
3800
3800
3800
3800
3c0e
1ffe
1ffc
07e0
ENDCHAR
STARTCHAR u
ENCODING 117
SWIDTH 597 0
DWIDTH 20 0
BBX 18 15 1 1
BITMAP
f83e00
f83e00
f83e00
380e00
380e00
380e00
380e00
380e00
380e00
380e00
380e00
3c3e00
1fffc0
0fffc0
07cfc0
ENDCHAR
STARTCHAR v
ENCODING 118
SWIDTH 597 0
DWIDTH 20 0
BBX 20 15 0 1
BITMAP
ff0ff0
ff0ff0
ff0ff0
1c0380
1e0780
0e0700
0f0f00
070e00
079e00
039c00
03f800
01f800
01f000
00f000
00e000
ENDCHAR
STARTCHAR w
ENCODING 119
SWIDTH 597 0
DWIDTH 20 0
BBX 20 15 0 1
BITMAP
fe07f0
fe07f0
fe07f0
3861c0
38f1c0
38f1c0
3cf1c0
1dfb80
1dfb80
1d9b80
0f9f00
0f9f00
0f0f00
0f0e00
070e00
ENDCHAR
STARTCHAR x
ENCODING 120
SWIDTH 597 0
DWIDTH 20 0
BBX 19 15 0 1
BITMAP
7f9fc0
7f9fc0
7f9fc0
0f0e00
079c00
03f800
01f000
01f000
03f800
07bc00
0f1e00
1e0f00
ff1fe0
ff1fe0
ff1fe0
ENDCHAR
STARTCHAR y
ENCODING 121
SWIDTH 597 0
DWIDTH 20 0
BBX 19 20 1 -4
BITMAP
fe0fe0
fe0fe0
fe0fe0
3c0780
1c0700
1e0e00
0e1e00
0f1c00
073c00
073800
03f000
03f000
01e000
01e000
01c000
038000
038000
ffe000
ffe000
ffe000
ENDCHAR
STARTCHAR z
ENCODING 122
SWIDTH 597 0
DWIDTH 20 0
BBX 14 15 3 1
BITMAP
fffc
fffc
fffc
e078
e0f0
e1e0
03c0
0780
0f00
1e1c
3c1c
781c
fffc
fffc
fffc
ENDCHAR
STARTCHAR braceleft
ENCODING 123
SWIDTH 597 0
DWIDTH 20 0
BBX 9 25 7 -2
BITMAP
0780
1f80
1f80
3800
3800
3800
3800
3c00
1c00
1c00
3c00
f800
f800
fc00
1c00
1c00
1c00
1c00
3800
3800
3800
3800
1f80
1f80
0780
ENDCHAR
STARTCHAR bar
ENCODING 124
SWIDTH 597 0
DWIDTH 20 0
BBX 3 28 8 -5
BITMAP
e0
e0
e0
e0
e0
e0
e0
e0
e0
e0
e0
e0
e0
e0
e0
e0
e0
e0
e0
e0
e0
e0
e0
e0
e0
e0
e0
e0
ENDCHAR
STARTCHAR braceright
ENCODING 125
SWIDTH 597 0
DWIDTH 20 0
BBX 9 25 4 -2
BITMAP
f000
fc00
fc00
0e00
0e00
0e00
1c00
1c00
1c00
1c00
1e00
0f80
0f80
0f80
1c00
1c00
1c00
1e00
0e00
0e00
0e00
0e00
fc00
fc00
f000
ENDCHAR
STARTCHAR asciitilde
ENCODING 126
SWIDTH 597 0
DWIDTH 20 0
BBX 15 6 2 8
BITMAP
0404
3f0c
7ffe
7ffc
61f8
6070
ENDCHAR
STARTCHAR space
ENCODING 160
SWIDTH 597 0
DWIDTH 20 0
BBX 0 0 0 1
BITMAP
ENDCHAR
STARTCHAR Aogonek
ENCODING 161
SWIDTH 597 0
DWIDTH 20 0
BBX 20 24 0 -4
BITMAP
1fe000
1ff000
1ff000
00f800
01f800
01bc00
039c00
031c00
070e00
070e00
0fff00
0fff00
1fff80
1c0780
1c03c0
3803c0
ff0ff0
ff0ff0
ff0ff0
000780
000e00
000fe0
000fc0
000780
ENDCHAR
STARTCHAR breve
ENCODING 162
SWIDTH 597 0
DWIDTH 20 0
BBX 12 6 4 17
BITMAP
e070
e070
70e0
3fc0
1f80
0f00
ENDCHAR
STARTCHAR Lslash
ENCODING 163
SWIDTH 597 0
DWIDTH 20 0
BBX 18 19 1 1
BITMAP
7fe000
7fe000
7fe000
0e0000
0e1800
0e7800
0ef800
0ff000
0fc000
3f0000
fe01c0
7e01c0
6e01c0
0e01c0
0e01c0
0e03c0
7fffc0
7fffc0
7fffc0
ENDCHAR
STARTCHAR currency
ENCODING 164
SWIDTH 597 0
DWIDTH 20 0
BBX 16 16 2 3
BITMAP
4002
e006
f7cf
7ffe
3ffc
3c38
781c
701c
701c
701c
783c
3c78
7ffc
7ffe
f7cf
4006
ENDCHAR
STARTCHAR Lcaron
ENCODING 165
SWIDTH 597 0
DWIDTH 20 0
BBX 19 21 2 1
BITMAP
0003c0
000780
ffce00
ffc000
ffc000
1c0000
1c0000
1c0000
1c0000
1c0000
1c0000
1c0000
1c0380
1c0380
1c0380
1c0380
1c0380
1c0780
ffff80
ffff80
ffff80
ENDCHAR
STARTCHAR Sacute
ENCODING 166
SWIDTH 597 0
DWIDTH 20 0
BBX 14 26 3 0
BITMAP
01e0
03c0
0700
0000
0000
0000
0f9c
3ffc
7ffc
f07c
e01c
e01c
e01c
f800
7fc0
3ff0
07f8
003c
e01c
e01c
e01c
f03c
fff8
fff0
e7c0
e000
ENDCHAR
STARTCHAR section
ENCODING 167
SWIDTH 597 0
DWIDTH 20 0
BBX 13 22 4 -2
BITMAP
1ff0
7ff0
7ff0
7070
7870
3c00
7e00
ff80
e7c0
e3e0
f0f0
7878
3c38
1e78
0ff8
07f0
e1e0
e0e0
e0e0
ffe0
ffc0
ff80
ENDCHAR
STARTCHAR dieresis
ENCODING 168
SWIDTH 597 0
DWIDTH 20 0
BBX 8 4 6 19
BITMAP
e7
e7
e7
e7
ENDCHAR
STARTCHAR Scaron
ENCODING 169
SWIDTH 597 0
DWIDTH 20 0
BBX 14 27 3 0
BITMAP
18c0
3fe0
1fc0
0700
0000
0000
0000
0f9c
3ffc
7ffc
f07c
e01c
e01c
e01c
f800
7fc0
3ff0
07f8
003c
e01c
e01c
e01c
f03c
fff8
fff0
e7c0
e000
ENDCHAR
STARTCHAR Scedilla
ENCODING 170
SWIDTH 597 0
DWIDTH 20 0
BBX 14 25 3 -5
BITMAP
0f9c
3ffc
7ffc
f07c
e01c
e01c
e01c
f800
7fc0
3ff0
07f8
003c
e01c
e01c
e01c
f83c
fff8
fff0
efc0
0380
03c0
03e0
0fe0
1fe0
03c0
ENDCHAR
STARTCHAR Tcaron
ENCODING 171
SWIDTH 597 0
DWIDTH 20 0
BBX 17 26 1 1
BITMAP
063000
0ff800
07f000
01c000
000000
000000
000000
ffff80
ffff80
ffff80
e1c380
e1c380
e1c380
e1c380
e1c380
e1c380
01c000
01c000
01c000
01c000
01c000
01c000
01c000
1ffc00
1ffc00
1ffc00
ENDCHAR
STARTCHAR Zacute
ENCODING 172
SWIDTH 597 0
DWIDTH 20 0
BBX 15 25 2 1
BITMAP
00f0
01e0
0380
0000
0000
0000
7ffc
7ffc
7ffc
703c
7038
7070
70e0
01e0
03c0
0380
0700
0f0e
1e0e
1c0e
380e
780e
fffe
fffe
fffe
ENDCHAR
STARTCHAR hyphen
ENCODING 173
SWIDTH 597 0
DWIDTH 20 0
BBX 7 3 6 9
BITMAP
fe
fe
fe
ENDCHAR
STARTCHAR Zcaron
ENCODING 174
SWIDTH 597 0
DWIDTH 20 0
BBX 15 26 2 1
BITMAP
0c60
1ff0
0fe0
0380
0000
0000
0000
7ffc
7ffc
7ffc
703c
7038
7070
70e0
01e0
03c0
0380
0700
0f0e
1e0e
1c0e
380e
780e
fffe
fffe
fffe
ENDCHAR
STARTCHAR Zdotaccent
ENCODING 175
SWIDTH 597 0
DWIDTH 20 0
BBX 15 26 2 1
BITMAP
0380
0380
0380
0380
0000
0000
0000
7ffc
7ffc
7ffc
703c
7038
7070
70e0
01e0
03c0
0380
0700
0f0e
1e0e
1c0e
380e
780e
fffe
fffe
fffe
ENDCHAR
STARTCHAR degree
ENCODING 176
SWIDTH 597 0
DWIDTH 20 0
BBX 10 10 5 12
BITMAP
1e00
7f80
7f80
e3c0
e1c0
e1c0
e1c0
7f80
7f80
1e00
ENDCHAR
STARTCHAR aogonek
ENCODING 177
SWIDTH 597 0
DWIDTH 20 0
BBX 17 20 2 -4
BITMAP
0fe000
3ff800
3ff800
203c00
001c00
0ffc00
3ffc00
7ffc00
f01c00
e01c00
e03c00
f07c00
7fff80
7fdf80
1f1f80
003c00
007800
007f00
007e00
003c00
ENDCHAR
STARTCHAR ogonek
ENCODING 178
SWIDTH 597 0
DWIDTH 20 0
BBX 7 5 7 -4
BITMAP
38
e0
e2
fc
78
ENDCHAR
STARTCHAR lslash
ENCODING 179
SWIDTH 597 0
DWIDTH 20 0
BBX 14 21 3 1
BITMAP
0f00
ff00
ff00
0700
0700
0700
0710
0778
07f8
07e0
1f80
3f00
ff00
7700
4700
0700
0700
0700
fffc
fffc
fffc
ENDCHAR
STARTCHAR acute
ENCODING 180
SWIDTH 597 0
DWIDTH 20 0
BBX 8 3 7 19
BITMAP
1e
3c
70
ENDCHAR
STARTCHAR lcaron
ENCODING 181
SWIDTH 597 0
DWIDTH 20 0
BBX 17 21 3 1
BITMAP
0f0f00
ff1e00
ff3800
070000
070000
070000
070000
070000
070000
070000
070000
070000
070000
070000
070000
070000
070000
070000
fffc00
fffc00
fffc00
ENDCHAR
STARTCHAR sacute
ENCODING 182
SWIDTH 597 0
DWIDTH 20 0
BBX 14 21 3 1
BITMAP
01e0
03c0
0700
0000
0000
0000
1f18
7ff8
fff8
e038
e038
f000
7fc0
3ff8
0ff8
603c
e01c
f03c
fff8
fff8
e7e0
ENDCHAR
STARTCHAR caron
ENCODING 183
SWIDTH 597 0
DWIDTH 20 0
BBX 9 6 5 17
BITMAP
4100
e380
7700
7f00
3e00
1c00
ENDCHAR
STARTCHAR cedilla
ENCODING 184
SWIDTH 597 0
DWIDTH 20 0
BBX 8 7 7 -5
BITMAP
1c
1e
1e
1f
7f
ff
7e
ENDCHAR
STARTCHAR scaron
ENCODING 185
SWIDTH 597 0
DWIDTH 20 0
BBX 14 22 3 1
BITMAP
1040
38e0
1dc0
1fc0
0f80
0700
0000
1f18
7ff8
fff8
e038
e038
f000
7fc0
3ff8
0ff8
603c
e01c
f03c
fff8
fff8
e7e0
ENDCHAR
STARTCHAR scedilla
ENCODING 186
SWIDTH 597 0
DWIDTH 20 0
BBX 14 21 3 -5
BITMAP
1f18
7ff8
fff8
e038
e038
f000
7fc0
3ff8
0ff8
e03c
e01c
f03c
fff8
fff8
e7e0
0380
03c0
03e0
0fe0
1fe0
07c0
ENDCHAR
STARTCHAR tcaron
ENCODING 187
SWIDTH 597 0
DWIDTH 20 0
BBX 15 21 3 1
BITMAP
003c
0078
38e0
3800
3800
3800
fff8
fff8
fff8
3800
3800
3800
3800
3800
3800
3800
3800
3c0e
1ffe
1ffc
07e0
ENDCHAR
STARTCHAR zacute
ENCODING 188
SWIDTH 597 0
DWIDTH 20 0
BBX 14 21 3 1
BITMAP
01e0
03c0
0700
0000
0000
0000
fffc
fffc
fffc
e078
e0f0
e1e0
03c0
0780
0f00
1e1c
3c1c
781c
fffc
fffc
fffc
ENDCHAR
STARTCHAR hungarumlaut
ENCODING 189
SWIDTH 597 0
DWIDTH 20 0
BBX 13 4 4 19
BITMAP
1e70
3ce0
71c0
6300
ENDCHAR
STARTCHAR zcaron
ENCODING 190
SWIDTH 597 0
DWIDTH 20 0
BBX 14 22 3 1
BITMAP
1040
38e0
1dc0
1fc0
0f80
0700
0000
fffc
fffc
fffc
e078
e0f0
e1e0
03c0
0780
0f00
1e1c
3c1c
781c
fffc
fffc
fffc
ENDCHAR
STARTCHAR zdotaccent
ENCODING 191
SWIDTH 597 0
DWIDTH 20 0
BBX 14 22 3 1
BITMAP
0700
0700
0700
0700
0000
0000
0000
fffc
fffc
fffc
e078
e0f0
e1e0
03c0
0780
0f00
1e1c
3c1c
781c
fffc
fffc
fffc
ENDCHAR
STARTCHAR Racute
ENCODING 192
SWIDTH 597 0
DWIDTH 20 0
BBX 18 25 1 1
BITMAP
007800
00f000
01c000
000000
000000
000000
fff800
fffc00
fffe00
1c0f00
1c0700
1c0700
1c0700
1c1e00
1ffe00
1ff800
1ff000
1c7000
1c3800
1c3c00
1c1e00
1c0e00
ff0fc0
ff07c0
ff07c0
ENDCHAR
STARTCHAR Aacute
ENCODING 193
SWIDTH 597 0
DWIDTH 20 0
BBX 20 25 0 1
BITMAP
003c00
007800
00e000
000000
000000
000000
1fe000
1ff000
1ff000
00f800
01f800
019c00
039c00
031c00
070e00
070e00
0fff00
0fff00
1fff80
1c0380
1c03c0
3801c0
ff0ff0
ff0ff0
ff0ff0
ENDCHAR
STARTCHAR Acircumflex
ENCODING 194
SWIDTH 597 0
DWIDTH 20 0
BBX 20 26 0 1
BITMAP
00e000
01f000
03f800
031800
000000
000000
000000
1fe000
1ff000
1ff000
00f800
01f800
019c00
039c00
031c00
070e00
070e00
0fff00
0fff00
1fff80
1c0380
1c03c0
3801c0
ff0ff0
ff0ff0
ff0ff0
ENDCHAR
STARTCHAR Abreve
ENCODING 195
SWIDTH 597 0
DWIDTH 20 0
BBX 20 26 0 1
BITMAP
0e0700
070e00
07fe00
03fc00
00f000
000000
000000
1fe000
1ff000
1ff000
00f800
01f800
019c00
039c00
031c00
070e00
070e00
0fff00
0fff00
1fff80
1c0380
1c03c0
3801c0
ff0ff0
ff0ff0
ff0ff0
ENDCHAR
STARTCHAR Adieresis
ENCODING 196
SWIDTH 597 0
DWIDTH 20 0
BBX 20 26 0 1
BITMAP
039c00
039c00
039c00
039c00
000000
000000
000000
1fe000
1ff000
1ff000
00f800
01f800
019c00
039c00
031c00
070e00
070e00
0fff00
0fff00
1fff80
1c0380
1c03c0
3801c0
ff0ff0
ff0ff0
ff0ff0
ENDCHAR
STARTCHAR Lacute
ENCODING 197
SWIDTH 597 0
DWIDTH 20 0
BBX 17 25 2 1
BITMAP
078000
0f0000
1c0000
000000
000000
000000
ffc000
ffc000
ffc000
1c0000
1c0000
1c0000
1c0000
1c0000
1c0000
1c0000
1c0380
1c0380
1c0380
1c0380
1c0380
1c0780
ffff80
ffff80
ffff80
ENDCHAR
STARTCHAR Cacute
ENCODING 198
SWIDTH 597 0
DWIDTH 20 0
BBX 18 25 2 1
BITMAP
00f000
01e000
038000
000000
000000
000000
07e700
0ff700
3fff00
3c1f00
780700
700700
e00700
e00000
e00000
e00000
e00000
e00000
f00000
700080
780380
3c0fc0
1fff80
0ffe00
03f000
ENDCHAR
STARTCHAR Ccedilla
ENCODING 199
SWIDTH 597 0
DWIDTH 20 0
BBX 18 25 2 -5
BITMAP
07e700
0ff700
3fff00
3c1f00
780700
700700
e00700
e00000
e00000
e00000
e00000
e00000
f00000
700080
780380
3c0fc0
1fff80
0ffe00
03f800
00c000
00f000
00f800
03f800
07f800
01f000
ENDCHAR
STARTCHAR Ccaron
ENCODING 200
SWIDTH 597 0
DWIDTH 20 0
BBX 18 26 2 1
BITMAP
063000
0ff800
07f000
01c000
000000
000000
000000
07e700
0ff700
3fff00
3c1f00
780700
700700
e00700
e00000
e00000
e00000
e00000
e00000
f00000
700080
780380
3c0fc0
1fff80
0ffe00
03f000
ENDCHAR
STARTCHAR Eacute
ENCODING 201
SWIDTH 597 0
DWIDTH 20 0
BBX 17 25 1 1
BITMAP
007800
00f000
01c000
000000
000000
000000
ffff80
ffff80
ffff80
1c0380
1c0380
1c3b80
1c3b80
1ff800
1ff800
1ff800
1c3800
1c3800
1c3b80
1c0380
1c0380
1c0380
ffff80
ffff80
ffff80
ENDCHAR
STARTCHAR Eogonek
ENCODING 202
SWIDTH 597 0
DWIDTH 20 0
BBX 17 24 1 -4
BITMAP
ffff80
ffff80
ffff80
1c0380
1c0380
1c3b80
1c3b80
1ff800
1ff800
1ff800
1c3800
1c3800
1c3b80
1c0380
1c0380
1c0380
ffff80
ffff80
ffff80
000e00
001c00
001f80
001f80
000f00
ENDCHAR
STARTCHAR Edieresis
ENCODING 203
SWIDTH 597 0
DWIDTH 20 0
BBX 17 26 1 1
BITMAP
073800
073800
073800
073800
000000
000000
000000
ffff80
ffff80
ffff80
1c0380
1c0380
1c3b80
1c3b80
1ff800
1ff800
1ff800
1c3800
1c3800
1c3b80
1c0380
1c0380
1c0380
ffff80
ffff80
ffff80
ENDCHAR
STARTCHAR Ecaron
ENCODING 204
SWIDTH 597 0
DWIDTH 20 0
BBX 17 26 1 1
BITMAP
063000
0ff800
07f000
01c000
000000
000000
000000
ffff80
ffff80
ffff80
1c0380
1c0380
1c3b80
1c3b80
1ff800
1ff800
1ff800
1c3800
1c3800
1c3b80
1c0380
1c0380
1c0380
ffff80
ffff80
ffff80
ENDCHAR
STARTCHAR Iacute
ENCODING 205
SWIDTH 597 0
DWIDTH 20 0
BBX 14 25 3 1
BITMAP
01e0
03c0
0700
0000
0000
0000
fffc
fffc
fffc
0700
0700
0700
0700
0700
0700
0700
0700
0700
0700
0700
0700
0700
fffc
fffc
fffc
ENDCHAR
STARTCHAR Icircumflex
ENCODING 206
SWIDTH 597 0
DWIDTH 20 0
BBX 14 26 3 1
BITMAP
0700
0f80
1fc0
18c0
0000
0000
0000
fffc
fffc
fffc
0700
0700
0700
0700
0700
0700
0700
0700
0700
0700
0700
0700
0700
fffc
fffc
fffc
ENDCHAR
STARTCHAR Dcaron
ENCODING 207
SWIDTH 597 0
DWIDTH 20 0
BBX 17 26 1 1
BITMAP
063000
0ff800
07f000
01c000
000000
000000
000000
fff000
fffc00
fffe00
380f00
380700
380300
380380
380380
380380
380380
380380
380380
380380
380700
380700
380e00
fffe00
fffc00
fff000
ENDCHAR
STARTCHAR Eth
ENCODING 208
SWIDTH 597 0
DWIDTH 20 0
BBX 17 19 1 1
BITMAP
fff000
fffc00
fffe00
380f00
380700
380300
380380
380380
ffc380
ffc380
ffc380
380380
380380
380700
380700
380e00
fffe00
fffc00
fff000
ENDCHAR
STARTCHAR Nacute
ENCODING 209
SWIDTH 597 0
DWIDTH 20 0
BBX 20 25 0 1
BITMAP
003c00
007800
00e000
000000
000000
000000
fe1ff0
fe1ff0
ff1ff0
1f01c0
1f81c0
1fc1c0
1dc1c0
1de1c0
1ce1c0
1c71c0
1c71c0
1c39c0
1c39c0
1c1dc0
1c1fc0
1c0fc0
ff8fc0
ff87c0
ff83c0
ENDCHAR
STARTCHAR Ncaron
ENCODING 210
SWIDTH 597 0
DWIDTH 20 0
BBX 20 26 0 1
BITMAP
031800
07fc00
03f800
00e000
000000
000000
000000
fe1ff0
fe1ff0
ff1ff0
1f01c0
1f81c0
1fc1c0
1dc1c0
1de1c0
1ce1c0
1c71c0
1c71c0
1c39c0
1c39c0
1c1dc0
1c1fc0
1c0fc0
ff8fc0
ff87c0
ff83c0
ENDCHAR
STARTCHAR Oacute
ENCODING 211
SWIDTH 597 0
DWIDTH 20 0
BBX 18 25 1 1
BITMAP
007800
00f000
01c000
000000
000000
000000
03f000
0ffc00
1ffe00
3c1f00
780780
700380
f003c0
e001c0
e001c0
e001c0
e001c0
e001c0
f003c0
700380
780780
3c1f00
1ffe00
0ffc00
03f000
ENDCHAR
STARTCHAR Ocircumflex
ENCODING 212
SWIDTH 597 0
DWIDTH 20 0
BBX 18 26 1 1
BITMAP
01c000
03e000
07f000
063000
000000
000000
000000
03f000
0ffc00
1ffe00
3c1f00
780780
700380
f003c0
e001c0
e001c0
e001c0
e001c0
e001c0
f003c0
700380
780780
3c1f00
1ffe00
0ffc00
03f000
ENDCHAR
STARTCHAR Ohungarumlaut
ENCODING 213
SWIDTH 597 0
DWIDTH 20 0
BBX 18 26 1 1
BITMAP
03ce00
079c00
0e3800
0c6000
000000
000000
000000
03f000
0ffc00
1ffe00
3c1f00
780780
700380
f003c0
e001c0
e001c0
e001c0
e001c0
e001c0
f003c0
700380
780780
3c1f00
1ffe00
0ffc00
03f000
ENDCHAR
STARTCHAR Odieresis
ENCODING 214
SWIDTH 597 0
DWIDTH 20 0
BBX 18 26 1 1
BITMAP
073800
073800
073800
073800
000000
000000
000000
03f000
0ffc00
1ffe00
3c1f00
780780
700380
f003c0
e001c0
e001c0
e001c0
e001c0
e001c0
f003c0
700380
780780
3c1f00
1ffe00
0ffc00
03f000
ENDCHAR
STARTCHAR multiply
ENCODING 215
SWIDTH 597 0
DWIDTH 20 0
BBX 14 13 3 5
BITMAP
2018
7038
787c
3cf8
1ff0
0fc0
0780
0fc0
1fe0
3cf0
7878
f03c
6010
ENDCHAR
STARTCHAR Rcaron
ENCODING 216
SWIDTH 597 0
DWIDTH 20 0
BBX 18 26 1 1
BITMAP
063000
0ff800
07f000
01c000
000000
000000
000000
fff800
fffc00
fffe00
1c0f00
1c0700
1c0700
1c0700
1c1e00
1ffe00
1ff800
1ff000
1c7000
1c3800
1c3c00
1c1e00
1c0e00
ff0fc0
ff07c0
ff07c0
ENDCHAR
STARTCHAR Uring
ENCODING 217
SWIDTH 597 0
DWIDTH 20 0
BBX 19 28 0 1
BITMAP
006000
00f000
01f800
01b800
01f800
00f000
00e000
000000
000000
ff9fe0
ff9fe0
ff9fe0
1c0380
1c0380
1c0380
1c0380
1c0380
1c0380
1c0380
1c0380
1c0380
1c0380
1c0380
1c0380
0e0f00
0fff00
07fe00
01f800
ENDCHAR
STARTCHAR Uacute
ENCODING 218
SWIDTH 597 0
DWIDTH 20 0
BBX 19 25 0 1
BITMAP
003c00
007800
00e000
000000
000000
000000
ff9fe0
ff9fe0
ff9fe0
1c0380
1c0380
1c0380
1c0380
1c0380
1c0380
1c0380
1c0380
1c0380
1c0380
1c0380
1c0380
0e0f00
0fff00
07fe00
01f800
ENDCHAR
STARTCHAR Uhungarumlaut
ENCODING 219
SWIDTH 597 0
DWIDTH 20 0
BBX 19 26 0 1
BITMAP
01e700
03ce00
071c00
063000
000000
000000
000000
ff9fe0
ff9fe0
ff9fe0
1c0380
1c0380
1c0380
1c0380
1c0380
1c0380
1c0380
1c0380
1c0380
1c0380
1c0380
1c0380
0e0f00
0fff00
07fe00
01f800
ENDCHAR
STARTCHAR Udieresis
ENCODING 220
SWIDTH 597 0
DWIDTH 20 0
BBX 19 26 0 1
BITMAP
039c00
039c00
039c00
039c00
000000
000000
000000
ff9fe0
ff9fe0
ff9fe0
1c0380
1c0380
1c0380
1c0380
1c0380
1c0380
1c0380
1c0380
1c0380
1c0380
1c0380
1c0380
0e0f00
0fff00
07fe00
01f800
ENDCHAR
STARTCHAR Yacute
ENCODING 221
SWIDTH 597 0
DWIDTH 20 0
BBX 19 25 0 1
BITMAP
003c00
007800
00e000
000000
000000
000000
ff0fe0
ff0fe0
ff0fe0
1e0300
1e0700
0f0e00
071c00
07bc00
03b800
01f000
01f000
00e000
00e000
00e000
00e000
00e000
07fe00
07fe00
07fe00
ENDCHAR
STARTCHAR Tcedilla
ENCODING 222
SWIDTH 597 0
DWIDTH 20 0
BBX 18 25 1 -5
BITMAP
ffffc0
ffffc0
ffffc0
e1c1c0
e1c1c0
e1c1c0
e1c1c0
e1c1c0
e1c1c0
01c000
01c000
01c000
01c000
01c000
01c000
01c000
0ffc00
0ffc00
0ffc00
01e000
01f000
01f000
07f000
07f000
01e000
ENDCHAR
STARTCHAR germandbls
ENCODING 223
SWIDTH 597 0
DWIDTH 20 0
BBX 15 21 2 1
BITMAP
07c0
0ff0
1ff0
3c38
3838
3838
3838
38f0
3bf0
3bf0
3bf8
383c
381e
380e
380e
380e
380e
3a1e
fbfc
f9fc
f8f0
ENDCHAR
STARTCHAR racute
ENCODING 224
SWIDTH 597 0
DWIDTH 20 0
BBX 17 21 2 1
BITMAP
00f000
01e000
038000
000000
000000
000000
fe3e00
feff80
ffff80
0fc200
0f8000
0f0000
0e0000
0e0000
0e0000
0e0000
0e0000
0e0000
fff800
fff800
fff800
ENDCHAR
STARTCHAR aacute
ENCODING 225
SWIDTH 597 0
DWIDTH 20 0
BBX 17 21 2 1
BITMAP
00f000
01e000
038000
000000
000000
000000
0fe000
3ff800
3ff800
203c00
001c00
0ffc00
3ffc00
7ffc00
f01c00
e01c00
e03c00
f07c00
7fff80
7fdf80
1f1f80
ENDCHAR
STARTCHAR acircumflex
ENCODING 226
SWIDTH 597 0
DWIDTH 20 0
BBX 17 22 2 1
BITMAP
038000
07c000
0fe000
1cf000
000000
000000
000000
0fe000
3ff800
3ff800
203c00
001c00
0ffc00
3ffc00
7ffc00
f01c00
e01c00
e03c00
f07c00
7fff80
7fdf80
1f1f80
ENDCHAR
STARTCHAR abreve
ENCODING 227
SWIDTH 597 0
DWIDTH 20 0
BBX 17 22 2 1
BITMAP
381c00
381c00
1c3800
0ff000
07e000
03c000
000000
0fe000
3ff800
3ff800
203c00
001c00
0ffc00
3ffc00
7ffc00
f01c00
e01c00
e03c00
f07c00
7fff80
7fdf80
1f1f80
ENDCHAR
STARTCHAR adieresis
ENCODING 228
SWIDTH 597 0
DWIDTH 20 0
BBX 17 22 2 1
BITMAP
0e7000
0e7000
0e7000
0e7000
000000
000000
000000
0fe000
3ff800
3ff800
203c00
001c00
0ffc00
3ffc00
7ffc00
f01c00
e01c00
e03c00
f07c00
7fff80
7fdf80
1f1f80
ENDCHAR
STARTCHAR lacute
ENCODING 229
SWIDTH 597 0
DWIDTH 20 0
BBX 14 27 3 1
BITMAP
03c0
0780
0e00
0000
0000
0000
0f00
ff00
ff00
0700
0700
0700
0700
0700
0700
0700
0700
0700
0700
0700
0700
0700
0700
0700
fffc
fffc
fffc
ENDCHAR
STARTCHAR cacute
ENCODING 230
SWIDTH 597 0
DWIDTH 20 0
BBX 17 21 2 1
BITMAP
00f000
01e000
038000
000000
000000
000000
07e700
1ff700
3fff00
7c1f00
700f00
f00700
e00000
e00000
e00000
e00000
700300
7c0f80
3fff00
1ffc00
07e000
ENDCHAR
STARTCHAR ccedilla
ENCODING 231
SWIDTH 597 0
DWIDTH 20 0
BBX 17 21 2 -5
BITMAP
07e700
1ff700
3fff00
781f00
700f00
e00700
e00000
e00000
e00000
e00000
700300
781f80
3fff00
1ffc00
07f000
01c000
01f000
01f000
07f000
07f000
01e000
ENDCHAR
STARTCHAR ccaron
ENCODING 232
SWIDTH 597 0
DWIDTH 20 0
BBX 17 22 2 1
BITMAP
041000
0e3800
077000
07f000
03e000
01c000
000000
07e700
1ff700
3fff00
7c1f00
700f00
f00700
e00000
e00000
e00000
e00000
700300
7c0f80
3fff00
1ffc00
07e000
ENDCHAR
STARTCHAR eacute
ENCODING 233
SWIDTH 597 0
DWIDTH 20 0
BBX 17 21 2 1
BITMAP
00f000
01e000
038000
000000
000000
000000
07e000
1ff800
3ffc00
7c1e00
700f00
e00700
ffff00
ffff00
ffff00
e00000
f00100
780f00
3fff80
1ffe00
07f000
ENDCHAR
STARTCHAR eogonek
ENCODING 234
SWIDTH 597 0
DWIDTH 20 0
BBX 17 20 2 -4
BITMAP
07f000
1ff800
3ffe00
7c1e00
700f00
f00700
ffff00
ffff00
ffff00
e00000
f00100
7c0f00
3fff80
1ffe00
07f000
01c000
038000
03f000
03f000
01e000
ENDCHAR
STARTCHAR edieresis
ENCODING 235
SWIDTH 597 0
DWIDTH 20 0
BBX 17 22 2 1
BITMAP
0e7000
0e7000
0e7000
0e7000
000000
000000
000000
07e000
1ff800
3ffc00
7c1e00
700f00
e00700
ffff00
ffff00
ffff00
e00000
f00100
780f00
3fff80
1ffe00
07f000
ENDCHAR
STARTCHAR ecaron
ENCODING 236
SWIDTH 597 0
DWIDTH 20 0
BBX 17 22 2 1
BITMAP
082000
1c7000
0ee000
0fe000
07c000
038000
000000
07e000
1ff800
3ffc00
7c1e00
700f00
e00700
ffff00
ffff00
ffff00
e00000
f00100
780f00
3fff80
1ffe00
07f000
ENDCHAR
STARTCHAR iacute
ENCODING 237
SWIDTH 597 0
DWIDTH 20 0
BBX 14 21 3 1
BITMAP
01e0
03c0
0700
0000
0000
0000
7f00
7f00
7f00
0700
0700
0700
0700
0700
0700
0700
0700
0700
fffc
fffc
fffc
ENDCHAR
STARTCHAR icircumflex
ENCODING 238
SWIDTH 597 0
DWIDTH 20 0
BBX 14 22 3 1
BITMAP
0700
0f80
1fc0
39e0
0000
0000
0000
7f00
7f00
7f00
0700
0700
0700
0700
0700
0700
0700
0700
0700
fffc
fffc
fffc
ENDCHAR
STARTCHAR dcaron
ENCODING 239
SWIDTH 597 0
DWIDTH 20 0
BBX 23 21 1 1
BITMAP
00ff3c
00ff78
00ffe0
000700
000700
000700
07e700
1ff700
3fff00
7c3f00
700f00
f00f00
e00700
e00700
e00700
e00700
700f00
7c3f00
3fffe0
1fffe0
07e7e0
ENDCHAR
STARTCHAR dbar
ENCODING 240
SWIDTH 597 0
DWIDTH 20 0
BBX 19 21 1 1
BITMAP
00ff00
00ff00
00f700
07ffe0
07ffe0
07ffe0
03c700
0ff700
3fff00
3c3f00
780f00
f00f00
e00700
e00700
e00700
e00f00
700f00
781f00
3fffe0
1fffe0
07e7e0
ENDCHAR
STARTCHAR nacute
ENCODING 241
SWIDTH 597 0
DWIDTH 20 0
BBX 18 21 1 1
BITMAP
007800
00f000
01c000
000000
000000
000000
f9f800
fffc00
fffe00
3e0f00
380700
380700
380700
380700
380700
380700
380700
380700
ff3fc0
ff3fc0
ff3fc0
ENDCHAR
STARTCHAR ncaron
ENCODING 242
SWIDTH 597 0
DWIDTH 20 0
BBX 18 22 1 1
BITMAP
041000
0e3800
077000
07f000
03e000
01c000
000000
f9f800
fffc00
fffe00
3e0f00
380700
380700
380700
380700
380700
380700
380700
380700
ff3fc0
ff3fc0
ff3fc0
ENDCHAR
STARTCHAR oacute
ENCODING 243
SWIDTH 597 0
DWIDTH 20 0
BBX 17 21 1 1
BITMAP
007800
00f000
01c000
000000
000000
000000
07f000
1ffc00
3ffe00
7c0f00
700780
e00380
e00380
e00380
e00380
f00380
700700
7c0f00
3ffe00
1ffc00
03f000
ENDCHAR
STARTCHAR ocircumflex
ENCODING 244
SWIDTH 597 0
DWIDTH 20 0
BBX 17 22 1 1
BITMAP
01c000
03e000
07f000
0e7800
000000
000000
000000
07f000
1ffc00
3ffe00
7c0f00
700780
e00380
e00380
e00380
e00380
f00380
700700
7c0f00
3ffe00
1ffc00
03f000
ENDCHAR
STARTCHAR ohungarumlaut
ENCODING 245
SWIDTH 597 0
DWIDTH 20 0
BBX 17 22 1 1
BITMAP
03ce00
079c00
0e3800
0c6000
000000
000000
000000
07f000
1ffc00
3ffe00
7c0f00
700780
e00380
e00380
e00380
e00380
f00380
700700
7c0f00
3ffe00
1ffc00
03f000
ENDCHAR
STARTCHAR odieresis
ENCODING 246
SWIDTH 597 0
DWIDTH 20 0
BBX 17 22 1 1
BITMAP
073800
073800
073800
073800
000000
000000
000000
07f000
1ffc00
3ffe00
7c0f00
700780
e00380
e00380
e00380
e00380
f00380
700700
7c0f00
3ffe00
1ffc00
03f000
ENDCHAR
STARTCHAR divide
ENCODING 247
SWIDTH 597 0
DWIDTH 20 0
BBX 16 15 2 4
BITMAP
0180
03c0
03c0
0380
0000
0000
ffff
ffff
ffff
0000
0000
0180
03c0
03c0
0380
ENDCHAR
STARTCHAR rcaron
ENCODING 248
SWIDTH 597 0
DWIDTH 20 0
BBX 17 22 2 1
BITMAP
082000
1c7000
0ee000
0fe000
07c000
038000
000000
fe3e00
feff80
ffff80
0fc200
0f8000
0f0000
0e0000
0e0000
0e0000
0e0000
0e0000
0e0000
fff800
fff800
fff800
ENDCHAR
STARTCHAR uring
ENCODING 249
SWIDTH 597 0
DWIDTH 20 0
BBX 18 23 1 1
BITMAP
01c000
03e000
03f000
037000
03f000
01e000
00c000
000000
f83e00
f83e00
f83e00
380e00
380e00
380e00
380e00
380e00
380e00
380e00
380e00
3c3e00
1fffc0
0fffc0
07cfc0
ENDCHAR
STARTCHAR uacute
ENCODING 250
SWIDTH 597 0
DWIDTH 20 0
BBX 18 21 1 1
BITMAP
007800
00f000
01c000
000000
000000
000000
f83e00
f83e00
f83e00
380e00
380e00
380e00
380e00
380e00
380e00
380e00
380e00
3c3e00
1fffc0
0fffc0
07cfc0
ENDCHAR
STARTCHAR uhungarumlaut
ENCODING 251
SWIDTH 597 0
DWIDTH 20 0
BBX 18 22 1 1
BITMAP
03ce00
079c00
0e3800
0c6000
000000
000000
000000
f83e00
f83e00
f83e00
380e00
380e00
380e00
380e00
380e00
380e00
380e00
380e00
3c3e00
1fffc0
0fffc0
07cfc0
ENDCHAR
STARTCHAR udieresis
ENCODING 252
SWIDTH 597 0
DWIDTH 20 0
BBX 18 22 1 1
BITMAP
073800
073800
073800
073800
000000
000000
000000
f83e00
f83e00
f83e00
380e00
380e00
380e00
380e00
380e00
380e00
380e00
380e00
3c3e00
1fffc0
0fffc0
07cfc0
ENDCHAR
STARTCHAR yacute
ENCODING 253
SWIDTH 597 0
DWIDTH 20 0
BBX 19 26 1 -4
BITMAP
007800
00f000
01c000
000000
000000
000000
fe0fe0
fe0fe0
fe0fe0
3c0780
1c0700
1e0e00
0e1e00
0f1c00
073c00
073800
03f000
03f000
01e000
01e000
01c000
038000
038000
ffe000
ffe000
ffe000
ENDCHAR
STARTCHAR tcedilla
ENCODING 254
SWIDTH 597 0
DWIDTH 20 0
BBX 15 25 3 -5
BITMAP
3800
3800
3800
3800
fff8
fff8
fff8
3800
3800
3800
3800
3800
3800
3800
3800
380c
3cfe
1ffe
0ff0
0380
03e0
03e0
0fe0
0fe0
03c0
ENDCHAR
STARTCHAR dotaccent
ENCODING 255
SWIDTH 597 0
DWIDTH 20 0
BBX 3 4 8 19
BITMAP
e0
e0
e0
e0
ENDCHAR
ENDFONT
